G04 #@! TF.FileFunction,Legend,Bot*
%FSLAX46Y46*%
G04 Gerber Fmt 4.6, Leading zero omitted, Abs format (unit mm)*
G04 Created by KiCad (PCBNEW (2015-03-10 BZR 5502)-product) date Monday, March 16, 2015 'PMt' 10:50:53 PM*
%MOMM*%
G01*
G04 APERTURE LIST*
%ADD10C,0.100000*%
%ADD11C,0.150000*%
G04 APERTURE END LIST*
D10*
D11*
X128108000Y-110670924D02*
X128253000Y-110670924D01*
X128108000Y-114820924D02*
X128253000Y-114820924D01*
X133258000Y-114820924D02*
X133113000Y-114820924D01*
X133258000Y-110670924D02*
X133113000Y-110670924D01*
X128108000Y-110670924D02*
X128108000Y-114820924D01*
X133258000Y-110670924D02*
X133258000Y-114820924D01*
X128253000Y-110670924D02*
X128253000Y-109270924D01*
X121610540Y-115984558D02*
X121495540Y-115984558D01*
X121610540Y-111834558D02*
X121495540Y-111834558D01*
X112710540Y-111834558D02*
X112825540Y-111834558D01*
X112710540Y-115984558D02*
X112825540Y-115984558D01*
X121610540Y-115984558D02*
X121610540Y-111834558D01*
X112710540Y-115984558D02*
X112710540Y-111834558D01*
X121495540Y-115984558D02*
X121495540Y-117359558D01*
X124421000Y-115578000D02*
X124421000Y-116578000D01*
X122721000Y-116578000D02*
X122721000Y-115578000D01*
X125007000Y-111244000D02*
X125007000Y-110244000D01*
X126707000Y-110244000D02*
X126707000Y-111244000D01*
X130189000Y-119796000D02*
X130189000Y-120996000D01*
X131939000Y-120996000D02*
X131939000Y-119796000D01*
X127395000Y-119796000D02*
X127395000Y-120996000D01*
X129145000Y-120996000D02*
X129145000Y-119796000D01*
X119538000Y-105932000D02*
X118338000Y-105932000D01*
X118338000Y-107682000D02*
X119538000Y-107682000D01*
X130950000Y-104300000D02*
X130250000Y-104300000D01*
X123500000Y-100000000D02*
X123500000Y-104300000D01*
X131000000Y-100000000D02*
X131000000Y-104300000D01*
X123550000Y-104300000D02*
X124250000Y-104300000D01*
X127706381Y-111769734D02*
X126706381Y-111769734D01*
X127611143Y-112817353D02*
X127658762Y-112769734D01*
X127706381Y-112626877D01*
X127706381Y-112531639D01*
X127658762Y-112388781D01*
X127563524Y-112293543D01*
X127468286Y-112245924D01*
X127277810Y-112198305D01*
X127134952Y-112198305D01*
X126944476Y-112245924D01*
X126849238Y-112293543D01*
X126754000Y-112388781D01*
X126706381Y-112531639D01*
X126706381Y-112626877D01*
X126754000Y-112769734D01*
X126801619Y-112817353D01*
X126801619Y-113198305D02*
X126754000Y-113245924D01*
X126706381Y-113341162D01*
X126706381Y-113579258D01*
X126754000Y-113674496D01*
X126801619Y-113722115D01*
X126896857Y-113769734D01*
X126992095Y-113769734D01*
X127134952Y-113722115D01*
X127706381Y-113150686D01*
X127706381Y-113769734D01*
X111897921Y-112933368D02*
X110897921Y-112933368D01*
X111802683Y-113980987D02*
X111850302Y-113933368D01*
X111897921Y-113790511D01*
X111897921Y-113695273D01*
X111850302Y-113552415D01*
X111755064Y-113457177D01*
X111659826Y-113409558D01*
X111469350Y-113361939D01*
X111326492Y-113361939D01*
X111136016Y-113409558D01*
X111040778Y-113457177D01*
X110945540Y-113552415D01*
X110897921Y-113695273D01*
X110897921Y-113790511D01*
X110945540Y-113933368D01*
X110993159Y-113980987D01*
X111897921Y-114933368D02*
X111897921Y-114361939D01*
X111897921Y-114647653D02*
X110897921Y-114647653D01*
X111040778Y-114552415D01*
X111136016Y-114457177D01*
X111183635Y-114361939D01*
X126028143Y-115911334D02*
X126075762Y-115863715D01*
X126123381Y-115720858D01*
X126123381Y-115625620D01*
X126075762Y-115482762D01*
X125980524Y-115387524D01*
X125885286Y-115339905D01*
X125694810Y-115292286D01*
X125551952Y-115292286D01*
X125361476Y-115339905D01*
X125266238Y-115387524D01*
X125171000Y-115482762D01*
X125123381Y-115625620D01*
X125123381Y-115720858D01*
X125171000Y-115863715D01*
X125218619Y-115911334D01*
X126123381Y-116863715D02*
X126123381Y-116292286D01*
X126123381Y-116578000D02*
X125123381Y-116578000D01*
X125266238Y-116482762D01*
X125361476Y-116387524D01*
X125409095Y-116292286D01*
X124114143Y-110577334D02*
X124161762Y-110529715D01*
X124209381Y-110386858D01*
X124209381Y-110291620D01*
X124161762Y-110148762D01*
X124066524Y-110053524D01*
X123971286Y-110005905D01*
X123780810Y-109958286D01*
X123637952Y-109958286D01*
X123447476Y-110005905D01*
X123352238Y-110053524D01*
X123257000Y-110148762D01*
X123209381Y-110291620D01*
X123209381Y-110386858D01*
X123257000Y-110529715D01*
X123304619Y-110577334D01*
X123304619Y-110958286D02*
X123257000Y-111005905D01*
X123209381Y-111101143D01*
X123209381Y-111339239D01*
X123257000Y-111434477D01*
X123304619Y-111482096D01*
X123399857Y-111529715D01*
X123495095Y-111529715D01*
X123637952Y-111482096D01*
X124209381Y-110910667D01*
X124209381Y-111529715D01*
X131516381Y-122896334D02*
X131040190Y-122563000D01*
X131516381Y-122324905D02*
X130516381Y-122324905D01*
X130516381Y-122705858D01*
X130564000Y-122801096D01*
X130611619Y-122848715D01*
X130706857Y-122896334D01*
X130849714Y-122896334D01*
X130944952Y-122848715D01*
X130992571Y-122801096D01*
X131040190Y-122705858D01*
X131040190Y-122324905D01*
X131516381Y-123848715D02*
X131516381Y-123277286D01*
X131516381Y-123563000D02*
X130516381Y-123563000D01*
X130659238Y-123467762D01*
X130754476Y-123372524D01*
X130802095Y-123277286D01*
X128849381Y-122896334D02*
X128373190Y-122563000D01*
X128849381Y-122324905D02*
X127849381Y-122324905D01*
X127849381Y-122705858D01*
X127897000Y-122801096D01*
X127944619Y-122848715D01*
X128039857Y-122896334D01*
X128182714Y-122896334D01*
X128277952Y-122848715D01*
X128325571Y-122801096D01*
X128373190Y-122705858D01*
X128373190Y-122324905D01*
X127944619Y-123277286D02*
X127897000Y-123324905D01*
X127849381Y-123420143D01*
X127849381Y-123658239D01*
X127897000Y-123753477D01*
X127944619Y-123801096D01*
X128039857Y-123848715D01*
X128135095Y-123848715D01*
X128277952Y-123801096D01*
X128849381Y-123229667D01*
X128849381Y-123848715D01*
X116498666Y-107259381D02*
X116832000Y-106783190D01*
X117070095Y-107259381D02*
X117070095Y-106259381D01*
X116689142Y-106259381D01*
X116593904Y-106307000D01*
X116546285Y-106354619D01*
X116498666Y-106449857D01*
X116498666Y-106592714D01*
X116546285Y-106687952D01*
X116593904Y-106735571D01*
X116689142Y-106783190D01*
X117070095Y-106783190D01*
X116165333Y-106259381D02*
X115546285Y-106259381D01*
X115879619Y-106640333D01*
X115736761Y-106640333D01*
X115641523Y-106687952D01*
X115593904Y-106735571D01*
X115546285Y-106830810D01*
X115546285Y-107068905D01*
X115593904Y-107164143D01*
X115641523Y-107211762D01*
X115736761Y-107259381D01*
X116022476Y-107259381D01*
X116117714Y-107211762D01*
X116165333Y-107164143D01*
X132687143Y-100985715D02*
X132734762Y-100938096D01*
X132782381Y-100795239D01*
X132782381Y-100700001D01*
X132734762Y-100557143D01*
X132639524Y-100461905D01*
X132544286Y-100414286D01*
X132353810Y-100366667D01*
X132210952Y-100366667D01*
X132020476Y-100414286D01*
X131925238Y-100461905D01*
X131830000Y-100557143D01*
X131782381Y-100700001D01*
X131782381Y-100795239D01*
X131830000Y-100938096D01*
X131877619Y-100985715D01*
X131782381Y-101604762D02*
X131782381Y-101795239D01*
X131830000Y-101890477D01*
X131925238Y-101985715D01*
X132115714Y-102033334D01*
X132449048Y-102033334D01*
X132639524Y-101985715D01*
X132734762Y-101890477D01*
X132782381Y-101795239D01*
X132782381Y-101604762D01*
X132734762Y-101509524D01*
X132639524Y-101414286D01*
X132449048Y-101366667D01*
X132115714Y-101366667D01*
X131925238Y-101414286D01*
X131830000Y-101509524D01*
X131782381Y-101604762D01*
X132782381Y-102461905D02*
X131782381Y-102461905D01*
X132782381Y-103033334D01*
X131782381Y-103033334D01*
X132782381Y-104033334D02*
X132782381Y-103461905D01*
X132782381Y-103747619D02*
X131782381Y-103747619D01*
X131925238Y-103652381D01*
X132020476Y-103557143D01*
X132068095Y-103461905D01*
M02*
