G04 #@! TF.FileFunction,Soldermask,Bot*
%FSLAX46Y46*%
G04 Gerber Fmt 4.6, Leading zero omitted, Abs format (unit mm)*
G04 Created by KiCad (PCBNEW (2015-03-10 BZR 5502)-product) date Monday, March 16, 2015 'PMt' 10:28:46 PM*
%MOMM*%
G01*
G04 APERTURE LIST*
%ADD10C,0.100000*%
%ADD11R,0.600000X1.550000*%
%ADD12R,0.600000X1.500000*%
%ADD13C,1.651000*%
%ADD14R,2.375000X1.900000*%
%ADD15R,1.175000X1.900000*%
%ADD16R,1.175000X2.100000*%
%ADD17R,0.450000X1.380000*%
%ADD18R,1.250000X1.000000*%
%ADD19R,1.300000X0.700000*%
%ADD20R,0.700000X1.300000*%
%ADD21R,1.727200X1.727200*%
%ADD22O,1.727200X1.727200*%
%ADD23R,2.032000X2.032000*%
%ADD24O,2.032000X2.032000*%
%ADD25R,2.032000X1.727200*%
%ADD26O,2.032000X1.727200*%
%ADD27R,1.727200X2.032000*%
%ADD28O,1.727200X2.032000*%
G04 APERTURE END LIST*
D10*
D11*
X128778000Y-110045924D03*
X130048000Y-110045924D03*
X131318000Y-110045924D03*
X132588000Y-110045924D03*
X132588000Y-115445924D03*
X131318000Y-115445924D03*
X130048000Y-115445924D03*
X128778000Y-115445924D03*
D12*
X120970540Y-116609558D03*
X119700540Y-116609558D03*
X118430540Y-116609558D03*
X117160540Y-116609558D03*
X115890540Y-116609558D03*
X114620540Y-116609558D03*
X113350540Y-116609558D03*
X113350540Y-111209558D03*
X114620540Y-111209558D03*
X115890540Y-111209558D03*
X117160540Y-111209558D03*
X118430540Y-111209558D03*
X119700540Y-111209558D03*
X120970540Y-111209558D03*
D13*
X101775000Y-120995000D03*
X107775000Y-120995000D03*
X101775000Y-116495000D03*
X107775000Y-116495000D03*
X101775000Y-113680000D03*
X107775000Y-113680000D03*
X101775000Y-109180000D03*
X107775000Y-109180000D03*
X101775000Y-106390000D03*
X107775000Y-106390000D03*
X101775000Y-101890000D03*
X107775000Y-101890000D03*
X114252000Y-123226000D03*
X108252000Y-123226000D03*
X114252000Y-127726000D03*
X108252000Y-127726000D03*
D14*
X124337500Y-101450000D03*
X130162500Y-101450000D03*
D15*
X126412500Y-101450000D03*
X128087500Y-101450000D03*
D16*
X124937500Y-103750000D03*
X129562500Y-103750000D03*
D17*
X128550000Y-104110000D03*
X126600000Y-104110000D03*
X127900000Y-104110000D03*
X127250000Y-104110000D03*
X125950000Y-104110000D03*
D18*
X123571000Y-117078000D03*
X123571000Y-115078000D03*
X125857000Y-109744000D03*
X125857000Y-111744000D03*
D19*
X131064000Y-121346000D03*
X131064000Y-119446000D03*
X128270000Y-121346000D03*
X128270000Y-119446000D03*
D20*
X117988000Y-106807000D03*
X119888000Y-106807000D03*
D21*
X149606000Y-122174000D03*
D22*
X152146000Y-122174000D03*
X149606000Y-124714000D03*
X152146000Y-124714000D03*
X149606000Y-127254000D03*
X152146000Y-127254000D03*
D23*
X119380000Y-102540000D03*
D24*
X116840000Y-102540000D03*
D25*
X152146000Y-113284000D03*
D26*
X152146000Y-115824000D03*
X152146000Y-118364000D03*
D27*
X140208000Y-102616000D03*
D28*
X142748000Y-102616000D03*
X145288000Y-102616000D03*
M02*
