M48
;DRILL file {kicad (2015-03-10 BZR 5502)-product} date Monday, March 16, 2015 'PMt' 10:28:22 PM
;FORMAT={3:3/ absolute / metric / keep zeros}
FMAT,2
METRIC,TZ
T1C0.330
T2C0.889
T3C1.016
%
G90
G05
M71
T1
X115824Y-118618
X116459Y-119253
X117856Y-118618
X118491Y-119253
X118999Y-108331
X118999Y-109665
X121158Y-106807
X122174Y-114491
X122428Y-110744
X124206Y-107823
X124333Y-109601
X125222Y-115951
X127762Y-116078
X128143Y-117475
X128524Y-105537
X131953Y-112141
X132588Y-114173
X136144Y-114110
X136144Y-123317
X139319Y-107188
X143637Y-115443
X143764Y-112141
X144399Y-116078
X146558Y-115443
X147193Y-116078
T2
X101775Y-101890
X101775Y-106390
X101775Y-109180
X101775Y-113680
X101775Y-116495
X101775Y-120995
X107775Y-101890
X107775Y-106390
X107775Y-109180
X107775Y-113680
X107775Y-116495
X107775Y-120995
X108252Y-123226
X108252Y-127726
X114252Y-123226
X114252Y-127726
T3
X116840Y-102540
X119380Y-102540
X140208Y-102616
X142748Y-102616
X145288Y-102616
X149606Y-122174
X149606Y-124714
X149606Y-127254
X152146Y-113284
X152146Y-115824
X152146Y-118364
X152146Y-122174
X152146Y-124714
X152146Y-127254
T0
M30
